<?xml version="1.0" encoding="UTF-8"?>
<svg version="1.1" xmlns="http://www.w3.org/2000/svg" width="500" height="500">
<path d="M0 0 C0.80179688 0.17692383 1.60359375 0.35384766 2.4296875 0.53613281 C47.67454626 10.86609071 85.58008462 38.94090018 110.27441406 78.01660156 C140.78154751 127.7548768 139.43857902 187.53247041 126.46875 242.703125 C112.79253822 297.71280334 82.26402813 346.12418097 46 389 C45.47132324 389.62777344 44.94264648 390.25554687 44.39794922 390.90234375 C38.37961385 398.03909744 32.23486141 405.03948387 25.88305664 411.88134766 C24.13098269 413.77051559 22.39640387 415.6708453 20.67285156 417.58642578 C10.46996485 428.85367071 -0.37993797 439.49450604 -11.14782715 450.2164917 C-13.84522429 452.90351028 -16.53965944 455.59349577 -19.234375 458.28320312 C-24.48675427 463.52497763 -29.74231012 468.76355166 -35 474 C-39.81230553 469.98455792 -44.35818939 465.79016026 -48.78125 461.3515625 C-49.39842896 460.73534027 -50.01560791 460.11911804 -50.65148926 459.48422241 C-51.94678485 458.18960252 -53.24083779 456.89373823 -54.53369141 455.59667969 C-56.4914052 453.63361828 -58.45438971 451.67594262 -60.41796875 449.71875 C-65.95403318 444.18532716 -71.44317742 438.6741195 -76.51367188 432.70458984 C-79.18152345 429.64497425 -82.10101544 426.83836323 -85 424 C-89.24013573 419.80367993 -93.38150676 415.59920864 -97.23828125 411.04296875 C-99.0905631 408.89497894 -101.00806015 406.81428626 -102.93798828 404.73608398 C-107.64845572 399.65988709 -112.16352646 394.48626743 -116.50390625 389.0859375 C-118.38678198 386.75812556 -120.28850631 384.4554198 -122.21484375 382.1640625 C-164.22954211 332.05987026 -194.32756356 273.24114505 -203 208 C-203.11714355 207.12698242 -203.23428711 206.25396484 -203.35498047 205.35449219 C-208.73832008 163.07167917 -204.46739882 121.78814768 -184 84 C-183.49194824 83.05858154 -183.49194824 83.05858154 -182.97363281 82.09814453 C-161.62353411 43.15905189 -124.26348308 15.60441607 -82.17016602 2.82666016 C-78.47251931 1.76811023 -74.74889602 0.85727026 -71 0 C-69.95368408 -0.24556641 -69.95368408 -0.24556641 -68.88623047 -0.49609375 C-47.05369716 -5.38933113 -21.80205575 -4.82519813 0 0 Z M-110 78 C-110.80824219 78.67546875 -111.61648437 79.3509375 -112.44921875 80.046875 C-122.68380957 88.85151514 -131.36301236 99.23513096 -138 111 C-138.32597168 111.57556641 -138.65194336 112.15113281 -138.98779297 112.74414062 C-153.76732146 139.26259946 -157.07900554 171.23801863 -149.12011719 200.50292969 C-143.17556336 220.92321223 -132.70454704 237.73846255 -118 253 C-117.12601563 253.96873047 -117.12601563 253.96873047 -116.234375 254.95703125 C-98.83129652 273.72247193 -69.65164354 285.86686883 -44.48168945 287.12597656 C-11.522705 288.06894072 19.01524932 279.28805711 44 257 C44.52142578 256.53899902 45.04285156 256.07799805 45.58007812 255.60302734 C68.03103075 235.40700457 81.35258128 206.01990415 83.11669922 176.01513672 C84.64978337 143.98816985 73.50269641 113.79383266 52.5625 89.75 C33.98087004 69.90144072 7.23332377 53.15427106 -20.71606445 51.82299805 C-22.09836383 51.7963351 -23.48080103 51.7762422 -24.86328125 51.76171875 C-25.61353073 51.753647 -26.36378021 51.74557526 -27.13676453 51.73725891 C-28.72437274 51.72347846 -30.31200982 51.71272953 -31.8996582 51.70483398 C-33.48861673 51.69341882 -35.07754019 51.67313715 -36.66625977 51.64331055 C-63.75448679 51.13648577 -89.47224575 60.16161985 -110 78 Z " fill="#94D50D" transform="translate(285,15)"/>
<path d="M0 0 C0.9404718 -0.01004562 1.8809436 -0.02009125 2.84991455 -0.03044128 C3.88005173 -0.03627228 4.9101889 -0.04210327 5.97154236 -0.04811096 C7.05807098 -0.05789474 8.14459961 -0.06767853 9.26405334 -0.07775879 C12.86827874 -0.10772852 16.4724669 -0.12910548 20.07676697 -0.14796448 C21.30821379 -0.1545363 22.53966061 -0.16110813 23.808424 -0.1678791 C29.65715836 -0.19712064 35.50587718 -0.22103528 41.35465914 -0.23831123 C48.08781471 -0.25862918 54.82029582 -0.30243346 61.5531798 -0.36581272 C67.39815096 -0.41894862 73.24289778 -0.43887936 79.08808708 -0.44757271 C81.56673771 -0.45611963 84.04537563 -0.47491858 86.52386665 -0.50431633 C90.00178786 -0.54333927 93.47782819 -0.54425009 96.95591736 -0.53639221 C97.97188492 -0.55639282 98.98785248 -0.57639343 100.03460693 -0.59700012 C107.44856489 -0.52215761 112.59221773 1.54946843 118.41661072 6.16062927 C120.73778661 8.68158838 122.67549437 11.20995235 124.41661072 14.16062927 C124.92946625 14.95106125 125.44232178 15.74149323 125.97071838 16.55587769 C128.03828774 21.71053114 127.83487419 26.45673696 127.80479431 31.96165466 C127.81267975 33.73582512 127.81267975 33.73582512 127.82072449 35.5458374 C127.83164052 38.7772452 127.82911798 42.00828234 127.81958723 45.23968434 C127.81196992 48.62727567 127.81904182 52.01484297 127.82374573 55.4024353 C127.82919653 61.08921223 127.82202872 66.77587209 127.807724 72.46263123 C127.79139083 79.03153482 127.79669337 85.60015914 127.81320322 92.169056 C127.82682806 97.81679103 127.82873313 103.46444212 127.82088721 109.11218828 C127.81621715 112.48199474 127.8155675 115.85167001 127.82549667 119.22146797 C127.83310648 122.97750422 127.82151289 126.7330023 127.80479431 130.48899841 C127.810867 131.60238586 127.8169397 132.71577332 127.82319641 133.86289978 C127.8105072 135.39999352 127.8105072 135.39999352 127.79756165 136.96813965 C127.79643057 137.85540772 127.79529949 138.7426758 127.79413414 139.65683079 C127.22212693 143.45047825 125.33629623 145.92924364 123.08131886 148.9484787 C120.64778764 150.72044472 118.77048399 150.5441309 115.78128052 150.55503845 C114.60784592 150.56638824 113.43441132 150.57773804 112.22541809 150.58943176 C110.93652679 150.58650116 109.6476355 150.58357056 108.31968689 150.58055115 C106.94967963 150.58788999 105.57967857 150.59647568 104.20968628 150.60621643 C100.48638473 150.62846506 96.76330427 150.63136134 93.03994536 150.62946892 C89.93119472 150.62934933 86.8224911 150.63790901 83.71375352 150.64624643 C76.37761356 150.6654939 69.04158738 150.66836004 61.70542908 150.66160583 C54.14073834 150.65496916 46.57653573 150.67781084 39.011944 150.71491957 C32.51584888 150.74562886 26.01991065 150.75697513 19.5237444 150.75308275 C15.64458834 150.75101587 11.76581175 150.75648393 7.88672447 150.78097534 C4.2364132 150.80325971 0.58689383 150.80135171 -3.06342125 150.78104782 C-5.03751257 150.77601847 -7.01161874 150.79564591 -8.98561096 150.8160553 C-18.68237389 150.72409351 -18.68237389 150.72409351 -22.38165283 148.34967041 C-25.71148828 143.52666708 -25.39148966 139.25642212 -25.29627991 133.52073669 C-25.30036865 132.3429213 -25.3044574 131.1651059 -25.30867004 129.95159912 C-25.31365077 126.72773356 -25.29190792 123.50540852 -25.25761604 120.28176284 C-25.22746416 116.9009483 -25.22989002 113.52014768 -25.22828674 110.13922119 C-25.22090613 104.45887999 -25.19100561 98.77902275 -25.14588928 93.09886169 C-25.08823363 85.82554349 -25.06744833 78.55261569 -25.05852509 71.27909374 C-25.05053812 65.00822487 -25.02553327 58.73743959 -24.99783134 52.46663117 C-24.98966644 50.4602714 -24.98379825 48.45391452 -24.97824097 46.44754601 C-24.96445145 42.69444615 -24.93715463 38.94169339 -24.90565491 35.18870544 C-24.90341919 34.08453278 -24.90118347 32.98036011 -24.89888 31.84272766 C-24.79073545 22.08630561 -23.62154853 14.36212133 -16.58338928 7.16062927 C-11.3392461 3.03511732 -6.80154812 0.05716396 0 0 Z " fill="#96D612" transform="translate(198.58338928222656,99.83937072753906)"/>
<path d="M0 0 C0.91417694 -0.0065712 1.82835388 -0.0131424 2.77023315 -0.01991272 C5.79970379 -0.03964424 8.82912483 -0.05130895 11.85864258 -0.0612793 C12.89399958 -0.06535482 13.92935658 -0.06943035 14.99608803 -0.07362938 C20.47769598 -0.09449099 25.9592789 -0.10879148 31.44091797 -0.11816406 C37.09568109 -0.12921962 42.75004974 -0.16360965 48.40467358 -0.20333576 C52.75851662 -0.22951619 57.11226596 -0.23785726 61.4661808 -0.24144554 C63.55011975 -0.24630896 65.63405458 -0.25791592 67.71791649 -0.27648354 C70.64038447 -0.30090154 73.56183566 -0.29990478 76.484375 -0.29296875 C77.33921982 -0.30577881 78.19406464 -0.31858887 79.07481384 -0.33178711 C85.46580528 -0.27672815 90.84437915 1.19569079 95.62956524 5.62438488 C99.49055274 9.98853574 100.17766187 13.44579873 100.24267578 19.09399414 C100.26192863 20.55636505 100.26192863 20.55636505 100.28157043 22.04827881 C100.28895737 23.0962262 100.2963443 24.14417358 100.30395508 25.22387695 C100.31202682 26.30904602 100.32009857 27.39421509 100.32841492 28.51226807 C100.34223903 30.80869965 100.35296865 33.10515163 100.36083984 35.40161133 C100.37804135 38.90005772 100.42194262 42.39755616 100.46606445 45.89575195 C100.47619298 48.13012003 100.48470858 50.36449611 100.49145508 52.59887695 C100.50896317 53.63872742 100.52647125 54.67857788 100.54450989 55.74993896 C100.52596536 62.00962746 99.84209024 67.02604613 96.06567383 72.17700195 C90.11282875 76.91498069 85.32493332 77.33430944 77.94775391 77.36987305 C77.01406982 77.37805054 76.08038574 77.38622803 75.1184082 77.39465332 C72.02401367 77.41949413 68.92966501 77.43602117 65.83520508 77.45043945 C64.24907189 77.45842497 64.24907189 77.45842497 62.63089561 77.46657181 C57.03258362 77.4932993 51.43429388 77.51267441 45.8359375 77.52709961 C41.20617901 77.54043389 36.57686177 77.56827812 31.94726562 77.60913086 C26.35462352 77.65848153 20.76238143 77.68322397 15.16953087 77.69032669 C13.04091719 77.69703407 10.91231224 77.71224268 8.78382301 77.7362175 C5.79893361 77.76791691 2.81558068 77.76789822 -0.16943359 77.76049805 C-1.47975304 77.78510605 -1.47975304 77.78510605 -2.81654358 77.81021118 C-9.03318937 77.74736375 -13.13160425 76.15237686 -17.93432617 72.17700195 C-23.2532938 66.2618804 -23.67557997 59.48936171 -23.59838867 51.8605957 C-23.6031723 50.80469742 -23.60795593 49.74879913 -23.61288452 48.66090393 C-23.61626889 46.44140115 -23.6071697 44.22184753 -23.58618164 42.00244141 C-23.55937005 38.62003801 -23.58599519 35.24094471 -23.61791992 31.85864258 C-23.61461609 29.69261969 -23.60821041 27.52659884 -23.59838867 25.3605957 C-23.60850983 24.35830429 -23.61863098 23.35601288 -23.62905884 22.323349 C-23.50619312 14.90685208 -21.65179224 9.91596834 -16.38565063 4.61936951 C-11.14185694 0.02910846 -6.67247592 0.0207426 0 0 Z " fill="#FEFEFD" transform="translate(210.934326171875,112.822998046875)"/>
<path d="M0 0 C1.69384766 1.03320312 1.69384766 1.03320312 3 3 C3.2982147 5.69331011 3.42051661 8.15075794 3.3984375 10.84375 C3.40274277 11.99200256 3.40274277 11.99200256 3.40713501 13.16345215 C3.409175 14.78068787 3.40364963 16.3979483 3.39111328 18.01513672 C3.37505758 20.49112091 3.39096297 22.96547285 3.41015625 25.44140625 C3.40817381 27.01302444 3.4043301 28.58464161 3.3984375 30.15625 C3.40754654 31.26728088 3.40754654 31.26728088 3.4168396 32.40075684 C3.34733774 37.47801955 3.34733774 37.47801955 1.69384766 39.96289062 C-1.22952869 41.75281606 -3.68840496 41.41394938 -7 41 C-9.65661653 38.57734033 -9.99177673 37.07472832 -10.38818359 33.47241211 C-10.40789711 32.07419078 -10.41033616 30.67565342 -10.3984375 29.27734375 C-10.40130768 28.53545303 -10.40417786 27.79356232 -10.40713501 27.02919006 C-10.4091718 25.46500889 -10.40366883 23.90080203 -10.39111328 22.33666992 C-10.37503001 19.94196772 -10.39098528 17.54894729 -10.41015625 15.15429688 C-10.40817419 13.63280878 -10.40433129 12.11132172 -10.3984375 10.58984375 C-10.40451019 9.87416733 -10.41058289 9.15849091 -10.4168396 8.42112732 C-10.37591328 5.53198596 -10.32665457 3.48790593 -8.69384766 1.04907227 C-5.81164769 -0.73599739 -3.2793182 -0.35135552 0 0 Z " fill="#99D719" transform="translate(340,144)"/>
<path d="M0 0 C6.98869865 -0.66559035 6.98869865 -0.66559035 9.59619141 1.05053711 C11.73018372 4.01400296 11.44802904 7.07067765 11.43359375 10.58984375 C11.4388356 11.33077774 11.44407745 12.07171173 11.44947815 12.83509827 C11.45589683 14.4010391 11.45456328 15.96702816 11.44604492 17.53295898 C11.43754142 19.92584392 11.46628278 22.31633577 11.49804688 24.70898438 C11.49965922 26.23177012 11.49908071 27.75456008 11.49609375 29.27734375 C11.51294472 30.34782204 11.51294472 30.34782204 11.53013611 31.43992615 C11.48247838 34.84736446 11.22775029 36.69602062 9.16040039 39.45532227 C6.24859156 41.53725406 4.50264019 41.52166982 1 41 C-0.66088867 39.96289062 -0.66088867 39.96289062 -2 38 C-2.28608245 35.30613513 -2.39675558 32.84839899 -2.36328125 30.15625 C-2.36377975 29.39074829 -2.36427826 28.62524658 -2.36479187 27.83654785 C-2.36245307 26.21929323 -2.35273587 24.60203486 -2.33618164 22.98486328 C-2.31258681 20.50910908 -2.31562205 18.03443183 -2.32226562 15.55859375 C-2.31668874 13.98697275 -2.30957879 12.41535628 -2.30078125 10.84375 C-2.30169266 10.10306274 -2.30260406 9.36237549 -2.30354309 8.59924316 C-2.25198479 4.86264194 -2.12552576 3.18828864 0 0 Z " fill="#99D719" transform="translate(159,144)"/>
<path d="M0 0 C22.11 0 44.22 0 67 0 C67.495 2.475 67.495 2.475 68 5 C65.249884 7.750116 63.68814059 7.2534349 59.83789062 7.25878906 C58.54314819 7.26509338 57.24840576 7.27139771 55.91442871 7.27789307 C54.49503443 7.27431339 53.07564138 7.27021146 51.65625 7.265625 C50.206583 7.26697169 48.75691643 7.26891226 47.30725098 7.27142334 C44.26745305 7.27437442 41.22777257 7.27007756 38.18798828 7.26074219 C34.28705751 7.24934756 30.38640193 7.25590713 26.48548126 7.26788712 C23.49153562 7.27510621 20.49765547 7.27281758 17.50370789 7.26763153 C16.06515979 7.26629517 14.62660579 7.2679423 13.18806458 7.27259064 C11.17941396 7.2776564 9.17074257 7.26856944 7.16210938 7.25878906 C6.01786499 7.25719788 4.87362061 7.25560669 3.69470215 7.25396729 C1 7 1 7 -1 5 C-0.67 3.35 -0.34 1.7 0 0 Z " fill="#FEFEFD" transform="translate(218,211)"/>
<path d="M0 0 C22.11 0 44.22 0 67 0 C67.495 2.475 67.495 2.475 68 5 C65.26804236 7.73195764 63.76911896 7.25337366 59.94555664 7.25878906 C58.67406265 7.26509338 57.40256866 7.27139771 56.09254456 7.27789307 C54.69841372 7.27431301 53.30428414 7.27021098 51.91015625 7.265625 C50.48530511 7.26697185 49.06045442 7.26891254 47.63560486 7.27142334 C44.64708081 7.27437466 41.6586762 7.27007745 38.67016602 7.26074219 C34.83883413 7.24935787 31.00778276 7.25590043 27.17646122 7.26788712 C24.23308703 7.27511439 21.28977932 7.27281364 18.34640312 7.26763153 C16.93380131 7.26629689 15.52119348 7.26793626 14.10859871 7.27259064 C12.13367961 7.27766865 10.15873937 7.2685568 8.18383789 7.25878906 C6.49744957 7.25640228 6.49744957 7.25640228 4.7769928 7.25396729 C2 7 2 7 -1 5 C-0.67 3.35 -0.34 1.7 0 0 Z " fill="#FAFDF4" transform="translate(218,224)"/>
<path d="M0 0 C8.25 0 16.5 0 25 0 C24 12 24 12 22 16 C18.81070929 18.23747567 15.89028649 18.29801909 12.0625 18.3125 C11.04285156 18.32925781 10.02320313 18.34601563 8.97265625 18.36328125 C5.31347936 17.91610194 2.62624887 16.62624887 0 14 C-0.14426614 9.33154772 -0.04208415 4.67134047 0 0 Z " fill="#9AD81C" transform="translate(285,256)"/>
<path d="M0 0 C7.92 0 15.84 0 24 0 C24.59528003 11.78654456 24.59528003 11.78654456 22.375 16.3125 C16.75095271 19.12452365 11.14295701 18.85766822 5 18 C1.625 16.3125 1.625 16.3125 0 13 C-0.38014307 8.5774905 -0.22516654 4.45829753 0 0 Z " fill="#9AD81C" transform="translate(191,256)"/>
<path d="M0 0 C2.86624771 2.44825325 4.61349969 4.24877735 5.44140625 8 C5.65821147 11.69268247 5.10798801 13.83081878 3.125 16.9375 C-0.29938634 20.2611691 -3.02156622 20.52160033 -7.66796875 20.4765625 C-11.28161628 19.73809517 -12.85671572 17.85208854 -14.96484375 14.93359375 C-16.53178184 12.00667165 -16.69043435 10.24504144 -16 7 C-14.37743711 3.98666891 -12.89925309 1.73867218 -10.25 -0.4375 C-6.66498744 -1.33375314 -3.46638537 -1.16003788 0 0 Z " fill="#FBFDF8" transform="translate(306,211)"/>
<path d="M0 0 C3.49406769 1.66762322 4.82670681 2.74006022 7 6 C7.73965025 10.59271203 7.60961194 14.02462089 5.125 18 C1.85159987 21.08084718 -0.46126475 21.33387487 -4.9609375 21.29296875 C-8.13134567 20.83745033 -9.8192402 19.24684343 -12 17 C-13.73631636 13.52736727 -13.60190402 9.78806987 -13 6 C-9.04831125 1.00839315 -6.3017294 -0.49425329 0 0 Z " fill="#FCFEF9" transform="translate(202,210)"/>
<path d="M0 0 C5.62187447 2.59551961 9.5663346 6.38131936 11.77734375 12.27734375 C11.90234375 15.02734375 11.90234375 15.02734375 11.77734375 17.27734375 C9.13734375 17.27734375 6.49734375 17.27734375 3.77734375 17.27734375 C3.52984375 16.34921875 3.28234375 15.42109375 3.02734375 14.46484375 C1.64713565 10.9453131 1.17999545 9.84779838 -2.22265625 8.27734375 C-5.35787245 7.6960958 -8.10095412 7.57621279 -11.22265625 8.27734375 C-14.38525082 10.64370863 -15.97736531 13.54147094 -17.22265625 17.27734375 C-19.53265625 17.27734375 -21.84265625 17.27734375 -24.22265625 17.27734375 C-24.72922912 11.95832858 -23.54875668 9.41249563 -20.22265625 5.27734375 C-14.08944171 -0.24254934 -8.12465371 -2.64158337 0 0 Z " fill="#96D613" transform="translate(283.22265625,167.72265625)"/>
<path d="M0 0 C0.66 0.33 1.32 0.66 2 1 C-1.63 4.63 -5.26 8.26 -9 12 C-9 8.47601214 -8.44884893 7.98495633 -6.1875 5.4375 C-5.40439453 4.53837891 -5.40439453 4.53837891 -4.60546875 3.62109375 C-3 2 -3 2 0 0 Z " fill="#B8E45F" transform="translate(187,103)"/>
</svg>
